<svg width="24" height="24" viewBox="0 0 24 24" fill="none" xmlns="http://www.w3.org/2000/svg">
<g clip-path="url(#clip0_301_3249)">
<rect width="24" height="24" rx="6" fill="#0ABD3E"/>
<path fill-rule="evenodd" clip-rule="evenodd" d="M17.6181 6.33514C16.1435 4.82162 14.1051 4 12.0234 4C7.59968 4 4.04337 7.58919 4.08674 11.9568C4.08674 13.3405 4.47707 14.6811 5.12761 15.8919L4 20L8.20686 18.9189C9.37784 19.5676 10.6789 19.8703 11.98 19.8703C16.3604 19.8703 19.9167 16.2811 19.9167 11.9135C19.9167 9.79459 19.0926 7.80541 17.6181 6.33514ZM12.0234 18.5297C10.8524 18.5297 9.68143 18.227 8.68393 17.6216L8.42371 17.4919L5.90827 18.1405L6.55881 15.6757L6.38533 15.4162C4.47707 12.3459 5.38783 8.28108 8.51045 6.37838C11.6331 4.47568 15.6664 5.38378 17.5747 8.4973C19.483 11.6108 18.5722 15.6324 15.4496 17.5351C14.4521 18.1838 13.2377 18.5297 12.0234 18.5297ZM15.8399 13.7297L15.3629 13.5135C15.3629 13.5135 14.6689 13.2108 14.2352 12.9946C14.1919 12.9946 14.1485 12.9514 14.1051 12.9514C13.975 12.9514 13.8883 12.9946 13.8015 13.0378C13.8015 13.0378 13.7582 13.0811 13.151 13.773C13.1076 13.8595 13.0209 13.9027 12.9342 13.9027H12.8908C12.8474 13.9027 12.7607 13.8595 12.7173 13.8162L12.5005 13.7297C12.0234 13.5135 11.5897 13.2541 11.2427 12.9081C11.156 12.8216 11.0259 12.7351 10.9391 12.6486C10.6356 12.3459 10.332 12 10.1151 11.6108L10.0718 11.5243C10.0284 11.4811 10.0284 11.4378 9.98502 11.3514C9.98502 11.2649 9.98502 11.1784 10.0284 11.1351C10.0284 11.1351 10.2019 10.9189 10.332 10.7892C10.4187 10.7027 10.4621 10.573 10.5488 10.4865C10.6356 10.3568 10.6789 10.1838 10.6356 10.0541C10.5922 9.83784 10.0718 8.67027 9.94165 8.41081C9.85491 8.28108 9.76817 8.23784 9.63806 8.19459H9.50795C9.42121 8.19459 9.2911 8.19459 9.16099 8.19459C9.07425 8.19459 8.98751 8.23784 8.90077 8.23784L8.8574 8.28108C8.77067 8.32432 8.68393 8.41081 8.59719 8.45405C8.51045 8.54054 8.46708 8.62703 8.38034 8.71351C8.07675 9.1027 7.90327 9.57838 7.90327 10.0541C7.90327 10.4 7.99001 10.7459 8.12012 11.0486L8.16349 11.1784C8.55382 12 9.07425 12.7351 9.76817 13.3838L9.94165 13.5568C10.0718 13.6865 10.2019 13.773 10.2886 13.9027C11.1994 14.6811 12.2402 15.2432 13.4112 15.5459C13.5413 15.5892 13.7148 15.5892 13.8449 15.6324C13.975 15.6324 14.1485 15.6324 14.2786 15.6324C14.4955 15.6324 14.7557 15.5459 14.9292 15.4595C15.0593 15.373 15.146 15.373 15.2327 15.2865L15.3195 15.2C15.4062 15.1135 15.493 15.0703 15.5797 14.9838C15.6664 14.8973 15.7532 14.8108 15.7966 14.7243C15.8833 14.5514 15.9267 14.3351 15.97 14.1189C15.97 14.0324 15.97 13.9027 15.97 13.8162C15.97 13.8162 15.9267 13.773 15.8399 13.7297Z" fill="white"/>
</g>
<defs>
<clipPath id="clip0_301_3249">
<rect width="24" height="24" fill="white"/>
</clipPath>
</defs>
</svg>
