<svg width="35" height="35" viewBox="0 0 35 35" fill="none" xmlns="http://www.w3.org/2000/svg">
<g clip-path="url(#clip0_1749_5968)">
<rect width="35" height="35" rx="6" fill="#F5F5F5"/>
<path d="M17.5 5.83331C11.06 5.83331 5.83337 11.06 5.83337 17.5C5.83337 23.94 11.06 29.1666 17.5 29.1666C23.94 29.1666 29.1667 23.94 29.1667 17.5C29.1667 11.06 23.94 5.83331 17.5 5.83331ZM18.6667 25.6666H16.3334V23.3333H18.6667V25.6666ZM21.0817 16.625L20.0317 17.6983C19.1917 18.55 18.6667 19.25 18.6667 21H16.3334V20.4166C16.3334 19.1333 16.8584 17.9666 17.6984 17.115L19.145 15.645C19.5767 15.225 19.8334 14.6416 19.8334 14C19.8334 12.7166 18.7834 11.6666 17.5 11.6666C16.2167 11.6666 15.1667 12.7166 15.1667 14H12.8334C12.8334 11.4216 14.9217 9.33331 17.5 9.33331C20.0784 9.33331 22.1667 11.4216 22.1667 14C22.1667 15.0266 21.7467 15.96 21.0817 16.625Z" fill="#666666"/>
</g>
<defs>
<clipPath id="clip0_1749_5968">
<rect width="35" height="35" fill="white"/>
</clipPath>
</defs>
</svg>
