<svg width="24" height="24" viewBox="0 0 24 24" fill="none" xmlns="http://www.w3.org/2000/svg">
<path d="M21.54 22.41C21.8 22.41 22.015 22.32 22.185 22.14C22.355 21.96 22.44 21.75 22.44 21.51C22.44 21.25 22.35 21.035 22.17 20.865C21.99 20.695 21.78 20.61 21.54 20.61C21.3 20.61 21.09 20.695 20.91 20.865C20.73 21.035 20.64 21.25 20.64 21.51C20.64 21.75 20.73 21.96 20.91 22.14C21.09 22.32 21.3 22.41 21.54 22.41ZM11.88 24C9.64 24 7.65 23.47 5.91 22.41C4.17 21.35 2.82 20.04 1.86 18.48L7.32 13.02L10.65 15.84C10.75 15.92 10.855 15.98 10.965 16.02C11.075 16.06 11.18 16.07 11.28 16.05C11.38 16.05 11.48 16.03 11.58 15.99C11.68 15.95 11.78 15.89 11.88 15.81L17.1 10.59V12C17.1 12.26 17.185 12.475 17.355 12.645C17.525 12.815 17.74 12.9 18 12.9C18.26 12.9 18.475 12.815 18.645 12.645C18.815 12.475 18.9 12.26 18.9 12V8.4C18.9 8.14 18.815 7.925 18.645 7.755C18.475 7.585 18.26 7.5 18 7.5H14.4C14.14 7.5 13.925 7.585 13.755 7.755C13.585 7.925 13.5 8.14 13.5 8.4C13.5 8.66 13.585 8.875 13.755 9.045C13.925 9.215 14.14 9.3 14.4 9.3H15.81L11.19 13.95L7.86 11.13C7.76 11.05 7.66 10.995 7.56 10.965C7.46 10.935 7.35 10.92 7.23 10.92C7.13 10.92 7.03 10.94 6.93 10.98C6.83 11.02 6.73 11.09 6.63 11.19L0.99 16.83C0.65 16.09 0.4 15.32 0.24 14.52C0.0800001 13.72 0 12.92 0 12.12C0 10.46 0.315 8.895 0.945 7.425C1.575 5.955 2.43 4.67 3.51 3.57C4.59 2.47 5.86 1.6 7.32 0.96C8.78 0.32 10.34 0 12 0C13.66 0 15.22 0.32 16.68 0.96C18.14 1.6 19.41 2.47 20.49 3.57C21.57 4.67 22.425 5.955 23.055 7.425C23.685 8.895 24 10.46 24 12.12V21.54C24 22.22 23.76 22.8 23.28 23.28C22.8 23.76 22.22 24 21.54 24H11.88Z" fill="#833177"/>
</svg>
