<svg width="75" height="83" viewBox="0 0 75 83" fill="none" xmlns="http://www.w3.org/2000/svg">
<path d="M55.0102 63.3121C56.7983 63.3121 58.318 62.6558 59.5695 61.3433C60.8211 60.0308 61.4469 58.4806 61.4469 56.6926C61.4469 54.9046 60.8211 53.3849 59.5695 52.1333C58.318 50.8817 56.7983 50.2559 55.0102 50.2559C53.2223 50.2559 51.6721 50.8817 50.3596 52.1333C49.047 53.3849 48.3908 54.9046 48.3908 56.6926C48.3908 58.4806 49.047 60.0308 50.3596 61.3433C51.6721 62.6558 53.2223 63.3121 55.0102 63.3121ZM54.867 76.2647C57.1812 76.2647 59.2709 75.7811 61.1361 74.814C63.0013 73.8469 64.5901 72.4653 65.9026 70.6692C64.1065 69.702 62.3118 68.9767 60.5183 68.4931C58.7249 68.0096 56.8597 67.7678 54.9228 67.7678C52.9859 67.7678 51.1022 68.0096 49.2715 68.4931C47.4409 68.9767 45.6621 69.702 43.9351 70.6692C45.2476 72.4653 46.8192 73.8469 48.6498 74.814C50.4804 75.7811 52.5529 76.2647 54.867 76.2647ZM33.1586 83C23.6255 80.7894 15.7158 75.3839 9.42946 66.7834C3.14315 58.1829 0 48.3217 0 37.1998V12.4345L33.1586 0L66.3171 12.4345V40.412C65.35 39.9284 64.3138 39.4967 63.2085 39.1167C62.1032 38.7368 61.067 38.4777 60.0999 38.3396V16.7865L33.1586 6.83895L6.21723 16.7865V37.1998C6.21723 42.4499 7.06346 47.2855 8.75593 51.7066C10.4484 56.1278 12.6072 60.0135 15.2322 63.3639C17.8573 66.7143 20.7586 69.4948 23.9363 71.7054C27.114 73.9159 30.1881 75.5048 33.1586 76.4719C33.573 77.3009 34.1948 78.2335 35.0237 79.2697C35.8527 80.3059 36.5435 81.1003 37.0961 81.6529C36.4744 81.9983 35.8181 82.2574 35.1273 82.4301C34.4365 82.6028 33.7803 82.7928 33.1586 83ZM55.1779 83C49.8242 83 45.2476 81.083 41.4482 77.2491C37.6488 73.4151 35.7491 68.8731 35.7491 63.623C35.7491 58.2047 37.6484 53.586 41.4472 49.767C45.2459 45.9482 49.8401 44.0387 55.2297 44.0387C60.5489 44.0387 65.1255 45.9482 68.9594 49.767C72.7934 53.586 74.7104 58.2047 74.7104 63.623C74.7104 68.8731 72.7934 73.4151 68.9594 77.2491C65.1255 81.083 60.5316 83 55.1779 83Z" fill="#833177"/>
</svg>
