<svg width="36" height="36" viewBox="0 0 36 36" fill="none" xmlns="http://www.w3.org/2000/svg">
<circle cx="18" cy="18" r="17" fill="white" stroke="#ADA8A8" stroke-width="2"/>
<path d="M17.8182 6C12.3636 6 8 10.3636 8 15.8182V23.4545C8 24.3225 8.3448 25.155 8.95856 25.7687C9.57232 26.3825 10.4047 26.7273 11.2727 26.7273H14.5455V18H10.1818V15.8182C10.1818 13.7929 10.9864 11.8506 12.4185 10.4185C13.8506 8.98636 15.7929 8.18182 17.8182 8.18182C19.8435 8.18182 21.7858 8.98636 23.2179 10.4185C24.65 11.8506 25.4545 13.7929 25.4545 15.8182V18H21.0909V26.7273H25.4545V27.8182H17.8182V30H24.3636C25.2316 30 26.064 29.6552 26.6778 29.0414C27.2916 28.4277 27.6364 27.5953 27.6364 26.7273V15.8182C27.6364 10.3636 23.24 6 17.8182 6Z" fill="#833177"/>
</svg>
