<svg width="35" height="35" viewBox="0 0 35 35" fill="none" xmlns="http://www.w3.org/2000/svg">
<g clip-path="url(#clip0_1749_14231)">
<rect width="35" height="35" rx="8.75" fill="#833177"/>
<path d="M16.8371 5.83334L7.29163 10.0758V16.4394C7.29163 22.3258 11.3644 27.8303 16.8371 29.1667C22.3098 27.8303 26.3825 22.3258 26.3825 16.4394V10.0758L16.8371 5.83334ZM16.8371 10.0758C17.681 10.0758 18.4903 10.411 19.087 11.0077C19.6837 11.6044 20.0189 12.4137 20.0189 13.2576C20.0189 14.1015 19.6837 14.9108 19.087 15.5075C18.4903 16.1042 17.681 16.4394 16.8371 16.4394C15.9932 16.4394 15.1839 16.1042 14.5872 15.5075C13.9905 14.9108 13.6553 14.1015 13.6553 13.2576C13.6553 12.4137 13.9905 11.6044 14.5872 11.0077C15.1839 10.411 15.9932 10.0758 16.8371 10.0758ZM22.278 22.803C20.9947 24.7652 19.075 26.2394 16.8371 26.9606C14.5992 26.2394 12.6795 24.7652 11.3962 22.803C11.0356 22.2727 10.728 21.7424 10.4734 21.1803C10.4734 19.4303 13.3477 17.9985 16.8371 17.9985C20.3265 17.9985 23.2007 19.3985 23.2007 21.1803C22.9462 21.7424 22.6386 22.2727 22.278 22.803Z" fill="white"/>
</g>
<defs>
<clipPath id="clip0_1749_14231">
<rect width="35" height="35" fill="white"/>
</clipPath>
</defs>
</svg>
