<svg width="171" height="39" viewBox="0 0 171 39" fill="none" xmlns="http://www.w3.org/2000/svg">
<path d="M163.295 11.9484H19.914C16.3946 11.9484 13.5415 14.8015 13.5415 18.3209V31.4642C13.5415 34.9836 16.3946 37.8366 19.914 37.8366H163.295C166.814 37.8366 169.667 34.9836 169.667 31.4642V18.3209C169.667 14.8015 166.814 11.9484 163.295 11.9484Z" stroke="#833177" stroke-width="1.59312"/>
<path d="M39.4775 17.5371C39.8088 17.7028 40.0032 17.9641 40.0605 18.321C40.1179 18.6778 40.0255 19.0028 39.7833 19.296C39.6177 19.5254 39.4042 19.6528 39.1429 19.6783C38.8816 19.7038 38.6172 19.6528 38.3495 19.5254C38.0436 19.3852 37.7218 19.2768 37.3841 19.2004C37.0464 19.1239 36.6927 19.0857 36.3231 19.0857C35.6348 19.0857 35.0199 19.194 34.4782 19.4107C33.9366 19.6273 33.4746 19.9364 33.0922 20.3379C32.7099 20.7393 32.4199 21.2141 32.2224 21.7621C32.0248 22.3101 31.9261 22.9155 31.9261 23.5783C31.9261 24.3557 32.0376 25.0312 32.2606 25.6047C32.4837 26.1782 32.7927 26.6562 33.1878 27.0385C33.5829 27.4209 34.0481 27.7044 34.5834 27.8892C35.1187 28.074 35.6986 28.1664 36.3231 28.1664C36.6672 28.1664 37.0113 28.1346 37.3554 28.0709C37.6995 28.0071 38.0309 27.8924 38.3495 27.7267C38.6172 27.5993 38.8816 27.5547 39.1429 27.5929C39.4042 27.6312 39.624 27.765 39.8025 27.9944C40.0574 28.313 40.1498 28.6412 40.0797 28.9789C40.0096 29.3167 39.8152 29.562 39.4966 29.715C39.1652 29.8806 38.8243 30.0177 38.4738 30.126C38.1233 30.2343 37.7696 30.3172 37.4128 30.3745C37.0559 30.4319 36.6927 30.4605 36.3231 30.4605C35.4054 30.4605 34.5356 30.314 33.7135 30.0208C32.8915 29.7277 32.1587 29.2944 31.515 28.7209C30.8714 28.1473 30.3648 27.4304 29.9952 26.5701C29.6256 25.7099 29.4408 24.7126 29.4408 23.5783C29.4408 22.5969 29.6097 21.692 29.9474 20.8636C30.2851 20.0352 30.7631 19.3183 31.3812 18.7129C31.9993 18.1075 32.729 17.6359 33.5702 17.2982C34.4113 16.9604 35.329 16.7916 36.3231 16.7916C36.8839 16.7916 37.4319 16.8553 37.9672 16.9827C38.5025 17.1102 39.0059 17.295 39.4775 17.5371Z" fill="#333333"/>
<path d="M51.3494 25.1651C51.3494 26.2101 51.1168 27.131 50.6516 27.9275C50.1864 28.7241 49.5619 29.3454 48.7781 29.7915C47.9942 30.2375 47.118 30.4606 46.1494 30.4606C45.1808 30.4606 44.3046 30.2375 43.5208 29.7915C42.7369 29.3454 42.1124 28.7241 41.6473 27.9275C41.1821 27.131 40.9495 26.2101 40.9495 25.1651C40.9495 24.12 41.1821 23.1991 41.6473 22.4026C42.1124 21.606 42.7369 20.9815 43.5208 20.5291C44.3046 20.0766 45.1808 19.8504 46.1494 19.8504C47.118 19.8504 47.9942 20.0766 48.7781 20.5291C49.5619 20.9815 50.1864 21.606 50.6516 22.4026C51.1168 23.1991 51.3494 24.12 51.3494 25.1651ZM49.0553 25.1651C49.0553 24.5151 48.9246 23.9511 48.6634 23.4732C48.4021 22.9952 48.0516 22.6224 47.6119 22.3548C47.1722 22.0871 46.6847 21.9533 46.1494 21.9533C45.6141 21.9533 45.1266 22.0871 44.6869 22.3548C44.2472 22.6224 43.8967 22.9952 43.6355 23.4732C43.3742 23.9511 43.2436 24.5151 43.2436 25.1651C43.2436 25.8023 43.3742 26.3599 43.6355 26.8378C43.8967 27.3158 44.2472 27.6886 44.6869 27.9562C45.1266 28.2238 45.6141 28.3577 46.1494 28.3577C46.6847 28.3577 47.1722 28.2238 47.6119 27.9562C48.0516 27.6886 48.4021 27.3158 48.6634 26.8378C48.9246 26.3599 49.0553 25.8023 49.0553 25.1651Z" fill="#333333"/>
<path d="M58.3464 19.8504C59.2895 19.8504 60.0064 20.0479 60.4971 20.443C60.9878 20.8381 61.3255 21.3639 61.5103 22.0202C61.6951 22.6766 61.7875 23.4062 61.7875 24.2092V29.1032C61.7875 29.4346 61.6792 29.7118 61.4625 29.9349C61.2459 30.1579 60.9718 30.2694 60.6405 30.2694C60.3091 30.2694 60.0351 30.1579 59.8184 29.9349C59.6018 29.7118 59.4934 29.4346 59.4934 29.1032V24.2092C59.4934 23.7886 59.4393 23.4094 59.3309 23.0717C59.2226 22.734 59.0282 22.4631 58.7478 22.2592C58.4675 22.0553 58.066 21.9533 57.5434 21.9533C57.0336 21.9533 56.6035 22.0553 56.253 22.2592C55.9025 22.4631 55.6349 22.734 55.4501 23.0717C55.2653 23.4094 55.1729 23.7886 55.1729 24.2092V29.1032C55.1729 29.4346 55.0645 29.7118 54.8479 29.9349C54.6312 30.1579 54.3572 30.2694 54.0258 30.2694C53.6945 30.2694 53.4204 30.1579 53.2038 29.9349C52.9871 29.7118 52.8788 29.4346 52.8788 29.1032V21.2077C52.8788 20.8764 52.9871 20.5992 53.2038 20.3761C53.4204 20.1531 53.6945 20.0416 54.0258 20.0416C54.3572 20.0416 54.6312 20.1531 54.8479 20.3761C55.0645 20.5992 55.1729 20.8764 55.1729 21.2077V22.0298L54.8861 21.9724C55.0008 21.7558 55.1665 21.5232 55.3832 21.2747C55.5998 21.0261 55.8547 20.7935 56.1479 20.5769C56.441 20.3602 56.7724 20.185 57.142 20.0511C57.5116 19.9173 57.913 19.8504 58.3464 19.8504Z" fill="#333333"/>
<path d="M64.0051 20.2327H68.536C68.8419 20.2327 69.0968 20.3347 69.3007 20.5386C69.5046 20.7425 69.6066 20.9974 69.6066 21.3033C69.6066 21.5964 69.5046 21.8418 69.3007 22.0393C69.0968 22.2368 68.8419 22.3356 68.536 22.3356H64.0051C63.6993 22.3356 63.4444 22.2337 63.2404 22.0297C63.0365 21.8258 62.9346 21.5709 62.9346 21.265C62.9346 20.9719 63.0365 20.7266 63.2404 20.529C63.4444 20.3315 63.6993 20.2327 64.0051 20.2327ZM66.0507 17.843C66.3821 17.843 66.6529 17.9545 66.8632 18.1776C67.0735 18.4006 67.1786 18.6778 67.1786 19.0092V27.5164C67.1786 27.6949 67.2137 27.8414 67.2838 27.9561C67.3539 28.0709 67.4495 28.1537 67.5706 28.2047C67.6916 28.2557 67.8223 28.2811 67.9625 28.2811C68.1154 28.2811 68.2556 28.2525 68.383 28.1951C68.5105 28.1378 68.6571 28.1091 68.8227 28.1091C69.0012 28.1091 69.1637 28.1919 69.3102 28.3576C69.4568 28.5233 69.5301 28.7527 69.5301 29.0458C69.5301 29.4027 69.3357 29.6958 68.947 29.9252C68.5583 30.1547 68.1409 30.2694 67.6948 30.2694C67.4272 30.2694 67.1309 30.2471 66.8059 30.2024C66.4809 30.1578 66.175 30.0495 65.8882 29.8775C65.6015 29.7054 65.3625 29.4409 65.1713 29.0841C64.9801 28.7272 64.8845 28.2365 64.8845 27.612V19.0092C64.8845 18.6778 64.9961 18.4006 65.2191 18.1776C65.4421 17.9545 65.7193 17.843 66.0507 17.843Z" fill="#333333"/>
<path d="M79.6049 19.8504C79.9363 19.8504 80.2103 19.9587 80.427 20.1754C80.6436 20.3921 80.752 20.6725 80.752 21.0166V29.1032C80.752 29.4346 80.6436 29.7118 80.427 29.9349C80.2103 30.1579 79.9363 30.2694 79.6049 30.2694C79.2736 30.2694 78.9995 30.1579 78.7829 29.9349C78.5662 29.7118 78.4579 29.4346 78.4579 29.1032V28.1665L78.8785 28.3386C78.8785 28.5042 78.7892 28.705 78.6108 28.9408C78.4324 29.1765 78.1902 29.4091 77.8844 29.6385C77.5785 29.8679 77.2184 30.0623 76.8042 30.2216C76.39 30.3809 75.9407 30.4606 75.4564 30.4606C74.577 30.4606 73.7805 30.2344 73.0668 29.7819C72.353 29.3295 71.7891 28.705 71.3749 27.9084C70.9606 27.1118 70.7535 26.1974 70.7535 25.1651C70.7535 24.12 70.9606 23.1991 71.3749 22.4026C71.7891 21.606 72.3467 20.9815 73.0476 20.5291C73.7486 20.0766 74.5261 19.8504 75.38 19.8504C75.928 19.8504 76.4314 19.9332 76.8902 20.0989C77.3491 20.2646 77.7473 20.4749 78.0851 20.7298C78.4228 20.9847 78.6841 21.2428 78.8689 21.5041C79.0537 21.7653 79.1461 21.9852 79.1461 22.1636L78.4579 22.4121V21.0166C78.4579 20.6852 78.5662 20.408 78.7829 20.185C78.9995 19.9619 79.2736 19.8504 79.6049 19.8504ZM75.7432 28.3577C76.304 28.3577 76.7947 28.2175 77.2152 27.9371C77.6358 27.6567 77.964 27.2743 78.1998 26.79C78.4356 26.3057 78.5535 25.7641 78.5535 25.1651C78.5535 24.5533 78.4356 24.0053 78.1998 23.521C77.964 23.0366 77.6358 22.6543 77.2152 22.3739C76.7947 22.0935 76.304 21.9533 75.7432 21.9533C75.1952 21.9533 74.7109 22.0935 74.2903 22.3739C73.8697 22.6543 73.5415 23.0366 73.3057 23.521C73.0699 24.0053 72.952 24.5533 72.952 25.1651C72.952 25.7641 73.0699 26.3057 73.3057 26.79C73.5415 27.2743 73.8697 27.6567 74.2903 27.9371C74.7109 28.2175 75.1952 28.3577 75.7432 28.3577Z" fill="#333333"/>
<path d="M87.3093 19.8504C88.0357 19.8504 88.6698 19.9269 89.2115 20.0798C89.7531 20.2328 90.1737 20.4462 90.4732 20.7202C90.7727 20.9943 90.9225 21.3224 90.9225 21.7048C90.9225 21.9597 90.846 22.1987 90.6931 22.4217C90.5401 22.6447 90.3171 22.7563 90.0239 22.7563C89.82 22.7563 89.6511 22.7276 89.5173 22.6702C89.3835 22.6129 89.2656 22.5396 89.1637 22.4504C89.0617 22.3612 88.9406 22.2783 88.8004 22.2018C88.673 22.1254 88.4786 22.0648 88.2173 22.0202C87.9561 21.9756 87.7617 21.9533 87.6343 21.9533C86.9843 21.9533 86.433 22.0935 85.9806 22.3739C85.5282 22.6543 85.1809 23.0335 84.9387 23.5114C84.6965 23.9893 84.5755 24.5406 84.5755 25.1651C84.5755 25.7768 84.6997 26.3217 84.9483 26.7996C85.1968 27.2775 85.5409 27.6567 85.9806 27.9371C86.4203 28.2175 86.9269 28.3577 87.5004 28.3577C87.8191 28.3577 88.0931 28.3386 88.3225 28.3003C88.5519 28.2621 88.7431 28.2047 88.896 28.1283C89.0744 28.0263 89.2338 27.918 89.3739 27.8033C89.5141 27.6886 89.7244 27.6312 90.0048 27.6312C90.3362 27.6312 90.5911 27.7364 90.7695 27.9466C90.9479 28.1569 91.0372 28.415 91.0372 28.7209C91.0372 29.0395 90.8587 29.3295 90.5019 29.5907C90.145 29.852 89.6766 30.0623 89.0967 30.2216C88.5168 30.3809 87.8892 30.4606 87.2137 30.4606C86.2068 30.4606 85.3338 30.228 84.5946 29.7628C83.8554 29.2976 83.285 28.6635 82.8836 27.8606C82.4821 27.0577 82.2814 26.1592 82.2814 25.1651C82.2814 24.12 82.4949 23.1991 82.9218 22.4026C83.3488 21.606 83.9414 20.9815 84.6997 20.5291C85.4581 20.0766 86.3279 19.8504 87.3093 19.8504Z" fill="#333333"/>
<path d="M92.4328 20.2327H96.9636C97.2695 20.2327 97.5244 20.3347 97.7283 20.5386C97.9322 20.7425 98.0342 20.9974 98.0342 21.3033C98.0342 21.5964 97.9322 21.8418 97.7283 22.0393C97.5244 22.2368 97.2695 22.3356 96.9636 22.3356H92.4328C92.1269 22.3356 91.872 22.2337 91.6681 22.0297C91.4641 21.8258 91.3622 21.5709 91.3622 21.265C91.3622 20.9719 91.4641 20.7266 91.6681 20.529C91.872 20.3315 92.1269 20.2327 92.4328 20.2327ZM94.4783 17.843C94.8097 17.843 95.0805 17.9545 95.2908 18.1776C95.5011 18.4006 95.6063 18.6778 95.6063 19.0092V27.5164C95.6063 27.6949 95.6413 27.8414 95.7114 27.9561C95.7815 28.0709 95.8771 28.1537 95.9982 28.2047C96.1192 28.2557 96.2499 28.2811 96.3901 28.2811C96.543 28.2811 96.6832 28.2525 96.8107 28.1951C96.9381 28.1378 97.0847 28.1091 97.2504 28.1091C97.4288 28.1091 97.5913 28.1919 97.7378 28.3576C97.8844 28.5233 97.9577 28.7527 97.9577 29.0458C97.9577 29.4027 97.7633 29.6958 97.3746 29.9252C96.9859 30.1547 96.5685 30.2694 96.1224 30.2694C95.8548 30.2694 95.5585 30.2471 95.2335 30.2024C94.9085 30.1578 94.6026 30.0495 94.3158 29.8775C94.0291 29.7054 93.7901 29.4409 93.5989 29.0841C93.4077 28.7272 93.3122 28.2365 93.3122 27.612V19.0092C93.3122 18.6778 93.4237 18.4006 93.6467 18.1776C93.8698 17.9545 94.147 17.843 94.4783 17.843Z" fill="#333333"/>
<path d="M114.284 17.5371C114.615 17.7028 114.81 17.9641 114.867 18.321C114.924 18.6778 114.832 19.0028 114.59 19.296C114.424 19.5254 114.211 19.6528 113.949 19.6783C113.688 19.7038 113.424 19.6528 113.156 19.5254C112.85 19.3852 112.528 19.2768 112.191 19.2004C111.853 19.1239 111.499 19.0857 111.13 19.0857C110.441 19.0857 109.826 19.194 109.285 19.4107C108.743 19.6273 108.281 19.9364 107.899 20.3379C107.516 20.7393 107.226 21.2141 107.029 21.7621C106.831 22.3101 106.733 22.9155 106.733 23.5783C106.733 24.3557 106.844 25.0312 107.067 25.6047C107.29 26.1782 107.599 26.6562 107.994 27.0385C108.389 27.4209 108.855 27.7044 109.39 27.8892C109.925 28.074 110.505 28.1664 111.13 28.1664C111.474 28.1664 111.818 28.1346 112.162 28.0709C112.506 28.0071 112.837 27.8924 113.156 27.7267C113.424 27.5993 113.688 27.5547 113.949 27.5929C114.211 27.6312 114.431 27.765 114.609 27.9944C114.864 28.313 114.956 28.6412 114.886 28.9789C114.816 29.3167 114.622 29.562 114.303 29.715C113.972 29.8806 113.631 30.0177 113.28 30.126C112.93 30.2343 112.576 30.3172 112.219 30.3745C111.862 30.4319 111.499 30.4605 111.13 30.4605C110.212 30.4605 109.342 30.314 108.52 30.0208C107.698 29.7277 106.965 29.2944 106.322 28.7209C105.678 28.1473 105.171 27.4304 104.802 26.5701C104.432 25.7099 104.247 24.7126 104.247 23.5783C104.247 22.5969 104.416 21.692 104.754 20.8636C105.092 20.0352 105.57 19.3183 106.188 18.7129C106.806 18.1075 107.536 17.6359 108.377 17.2982C109.218 16.9604 110.135 16.7916 111.13 16.7916C111.69 16.7916 112.238 16.8553 112.774 16.9827C113.309 17.1102 113.812 17.295 114.284 17.5371Z" fill="#333333"/>
<path d="M121.052 30.4606C119.968 30.4606 119.028 30.2344 118.232 29.7819C117.435 29.3295 116.823 28.7145 116.397 27.9371C115.97 27.1596 115.756 26.2802 115.756 25.2989C115.756 24.1518 115.989 23.1737 116.454 22.3643C116.919 21.555 117.528 20.9337 118.28 20.5004C119.032 20.0671 119.828 19.8504 120.669 19.8504C121.319 19.8504 121.934 19.9842 122.514 20.2519C123.094 20.5195 123.607 20.8859 124.053 21.3511C124.499 21.8163 124.853 22.3548 125.114 22.9665C125.375 23.5783 125.506 24.2283 125.506 24.9165C125.493 25.2224 125.372 25.4709 125.143 25.6621C124.913 25.8533 124.646 25.9489 124.34 25.9489H117.037L116.463 24.0371H123.48L123.059 24.4195V23.9033C123.033 23.5337 122.903 23.2023 122.667 22.9092C122.431 22.6161 122.138 22.3835 121.788 22.2114C121.437 22.0394 121.064 21.9533 120.669 21.9533C120.287 21.9533 119.93 22.0043 119.599 22.1063C119.267 22.2082 118.981 22.3803 118.738 22.6224C118.496 22.8646 118.305 23.1896 118.165 23.5974C118.025 24.0053 117.955 24.5214 117.955 25.1459C117.955 25.8342 118.098 26.4172 118.385 26.8952C118.672 27.3731 119.041 27.7364 119.494 27.9849C119.946 28.2334 120.427 28.3577 120.937 28.3577C121.408 28.3577 121.784 28.3194 122.065 28.243C122.345 28.1665 122.571 28.0741 122.744 27.9658C122.916 27.8574 123.072 27.765 123.212 27.6886C123.441 27.5739 123.658 27.5165 123.862 27.5165C124.142 27.5165 124.375 27.6121 124.56 27.8033C124.744 27.9944 124.837 28.2175 124.837 28.4724C124.837 28.8165 124.658 29.1287 124.302 29.4091C123.97 29.6895 123.505 29.9349 122.906 30.1451C122.307 30.3554 121.689 30.4606 121.052 30.4606Z" fill="#333333"/>
<path d="M132.503 19.8504C133.446 19.8504 134.163 20.0479 134.654 20.443C135.144 20.8381 135.482 21.3639 135.667 22.0202C135.852 22.6766 135.944 23.4062 135.944 24.2092V29.1032C135.944 29.4346 135.836 29.7118 135.619 29.9349C135.402 30.1579 135.128 30.2694 134.797 30.2694C134.466 30.2694 134.192 30.1579 133.975 29.9349C133.758 29.7118 133.65 29.4346 133.65 29.1032V24.2092C133.65 23.7886 133.596 23.4094 133.488 23.0717C133.379 22.734 133.185 22.4631 132.904 22.2592C132.624 22.0553 132.223 21.9533 131.7 21.9533C131.19 21.9533 130.76 22.0553 130.41 22.2592C130.059 22.4631 129.792 22.734 129.607 23.0717C129.422 23.4094 129.329 23.7886 129.329 24.2092V29.1032C129.329 29.4346 129.221 29.7118 129.004 29.9349C128.788 30.1579 128.514 30.2694 128.182 30.2694C127.851 30.2694 127.577 30.1579 127.36 29.9349C127.144 29.7118 127.035 29.4346 127.035 29.1032V21.2077C127.035 20.8764 127.144 20.5992 127.36 20.3761C127.577 20.1531 127.851 20.0416 128.182 20.0416C128.514 20.0416 128.788 20.1531 129.004 20.3761C129.221 20.5992 129.329 20.8764 129.329 21.2077V22.0298L129.043 21.9724C129.157 21.7558 129.323 21.5232 129.54 21.2747C129.756 21.0261 130.011 20.7935 130.304 20.5769C130.598 20.3602 130.929 20.185 131.299 20.0511C131.668 19.9173 132.07 19.8504 132.503 19.8504Z" fill="#333333"/>
<path d="M138.162 20.2327H142.693C142.998 20.2327 143.253 20.3347 143.457 20.5386C143.661 20.7425 143.763 20.9974 143.763 21.3033C143.763 21.5964 143.661 21.8418 143.457 22.0393C143.253 22.2368 142.998 22.3356 142.693 22.3356H138.162C137.856 22.3356 137.601 22.2337 137.397 22.0297C137.193 21.8258 137.091 21.5709 137.091 21.265C137.091 20.9719 137.193 20.7266 137.397 20.529C137.601 20.3315 137.856 20.2327 138.162 20.2327ZM140.207 17.843C140.539 17.843 140.81 17.9545 141.02 18.1776C141.23 18.4006 141.335 18.6778 141.335 19.0092V27.5164C141.335 27.6949 141.37 27.8414 141.44 27.9561C141.511 28.0709 141.606 28.1537 141.727 28.2047C141.848 28.2557 141.979 28.2811 142.119 28.2811C142.272 28.2811 142.412 28.2525 142.54 28.1951C142.667 28.1378 142.814 28.1091 142.979 28.1091C143.158 28.1091 143.32 28.1919 143.467 28.3576C143.613 28.5233 143.687 28.7527 143.687 29.0458C143.687 29.4027 143.492 29.6958 143.104 29.9252C142.715 30.1547 142.298 30.2694 141.851 30.2694C141.584 30.2694 141.287 30.2471 140.962 30.2024C140.637 30.1578 140.332 30.0495 140.045 29.8775C139.758 29.7054 139.519 29.4409 139.328 29.0841C139.137 28.7272 139.041 28.2365 139.041 27.612V19.0092C139.041 18.6778 139.153 18.4006 139.376 18.1776C139.599 17.9545 139.876 17.843 140.207 17.843Z" fill="#333333"/>
<path d="M150.11 30.4606C149.027 30.4606 148.087 30.2344 147.29 29.7819C146.494 29.3295 145.882 28.7145 145.455 27.9371C145.028 27.1596 144.815 26.2802 144.815 25.2989C144.815 24.1518 145.047 23.1737 145.512 22.3643C145.978 21.555 146.586 20.9337 147.338 20.5004C148.09 20.0671 148.887 19.8504 149.728 19.8504C150.378 19.8504 150.993 19.9842 151.573 20.2519C152.152 20.5195 152.665 20.8859 153.112 21.3511C153.558 21.8163 153.911 22.3548 154.173 22.9665C154.434 23.5783 154.564 24.2283 154.564 24.9165C154.552 25.2224 154.431 25.4709 154.201 25.6621C153.972 25.8533 153.704 25.9489 153.398 25.9489H146.095L145.522 24.0371H152.538L152.117 24.4195V23.9033C152.092 23.5337 151.961 23.2023 151.726 22.9092C151.49 22.6161 151.197 22.3835 150.846 22.2114C150.496 22.0394 150.123 21.9533 149.728 21.9533C149.345 21.9533 148.989 22.0043 148.657 22.1063C148.326 22.2082 148.039 22.3803 147.797 22.6224C147.555 22.8646 147.364 23.1896 147.223 23.5974C147.083 24.0053 147.013 24.5214 147.013 25.1459C147.013 25.8342 147.156 26.4172 147.443 26.8952C147.73 27.3731 148.1 27.7364 148.552 27.9849C149.004 28.2334 149.486 28.3577 149.995 28.3577C150.467 28.3577 150.843 28.3194 151.123 28.243C151.404 28.1665 151.63 28.0741 151.802 27.9658C151.974 27.8574 152.13 27.765 152.27 27.6886C152.5 27.5739 152.716 27.5165 152.92 27.5165C153.201 27.5165 153.433 27.6121 153.618 27.8033C153.803 27.9944 153.895 28.2175 153.895 28.4724C153.895 28.8165 153.717 29.1287 153.36 29.4091C153.029 29.6895 152.564 29.9349 151.964 30.1451C151.365 30.3554 150.747 30.4606 150.11 30.4606Z" fill="#333333"/>
<path d="M157.241 30.2694C156.91 30.2694 156.636 30.1579 156.419 29.9349C156.202 29.7118 156.094 29.4346 156.094 29.1032V21.2077C156.094 20.8764 156.202 20.5992 156.419 20.3761C156.636 20.1531 156.91 20.0416 157.241 20.0416C157.572 20.0416 157.846 20.1531 158.063 20.3761C158.28 20.5992 158.388 20.8764 158.388 21.2077V23.0048L158.254 21.7239C158.394 21.418 158.576 21.1472 158.799 20.9114C159.022 20.6756 159.274 20.4781 159.554 20.3188C159.835 20.1595 160.134 20.0416 160.453 19.9651C160.771 19.8886 161.09 19.8504 161.409 19.8504C161.791 19.8504 162.113 19.9587 162.374 20.1754C162.635 20.3921 162.766 20.647 162.766 20.9401C162.766 21.3607 162.658 21.6634 162.441 21.8482C162.224 22.033 161.988 22.1254 161.734 22.1254C161.491 22.1254 161.272 22.0808 161.074 21.9916C160.876 21.9023 160.65 21.8577 160.395 21.8577C160.166 21.8577 159.933 21.9119 159.698 22.0202C159.462 22.1286 159.245 22.2974 159.048 22.5268C158.85 22.7563 158.691 23.0398 158.57 23.3776C158.449 23.7153 158.388 24.1136 158.388 24.5724V29.1032C158.388 29.4346 158.28 29.7118 158.063 29.9349C157.846 30.1579 157.572 30.2694 157.241 30.2694Z" fill="#333333"/>
<path d="M12.9441 25.8882C20.0929 25.8882 25.8882 20.0929 25.8882 12.9441C25.8882 5.79527 20.0929 0 12.9441 0C5.79527 0 0 5.79527 0 12.9441C0 20.0929 5.79527 25.8882 12.9441 25.8882Z" fill="#833177"/>
<path d="M13.251 4.12573C17.7651 4.12573 20.188 7.25939 20.4325 12.0469L20.7647 12.047C21.0463 12.047 21.2745 12.2753 21.2745 12.5568V16.9199C21.2745 17.2015 21.0463 17.4297 20.7647 17.4297H19.2211C18.9396 17.4297 18.7113 17.2015 18.7113 16.9199V12.5568C18.7113 12.2753 18.9396 12.047 19.2211 12.047L19.6627 12.047C19.4315 7.74745 17.3229 5.66365 13.251 5.66365C9.17919 5.66365 7.0706 7.74742 6.83939 12.0469L6.92349 12.047C7.20504 12.047 7.43328 12.2753 7.43328 12.5568V16.9199C7.43328 17.2015 7.20504 17.4297 6.92349 17.4297H5.37989C5.09834 17.4297 4.8701 17.2015 4.8701 16.9199V12.5568C4.8701 12.2753 5.09834 12.047 5.37989 12.047L6.06952 12.0468C6.31345 7.24623 8.73638 4.12573 13.251 4.12573ZM20.5056 17.4297C20.5056 19.4332 19.8248 20.7259 18.4552 21.2105L18.455 21.2774C18.455 21.5589 18.2268 21.7872 17.9452 21.7872H14.0947C13.8132 21.7872 13.5849 21.5589 13.5849 21.2774V20.5027C13.5849 20.2212 13.8132 19.9929 14.0947 19.9929H17.9452C18.1854 19.9929 18.3868 20.1591 18.4408 20.3827C19.2833 19.9642 19.7172 19.0374 19.736 17.5327L19.7366 17.4297H20.5056ZM21.5308 13.0723V16.9171C22.0971 16.9171 22.5561 16.4581 22.5561 15.8918V14.0976C22.5561 13.5314 22.0971 13.0723 21.5308 13.0723ZM4.61378 13.0723V16.9171C4.04753 16.9171 3.5885 16.4581 3.5885 15.8918V14.0976C3.5885 13.5314 4.04753 13.0723 4.61378 13.0723Z" fill="white"/>
</svg>
