<svg width="35" height="35" viewBox="0 0 35 35" fill="none" xmlns="http://www.w3.org/2000/svg">
<g clip-path="url(#clip0_1749_6707)">
<rect width="35" height="35" rx="6" fill="#F5F5F5"/>
<path d="M17.1843 21.5833C16.1013 21.5833 15.0627 21.1531 14.2969 20.3874C13.5311 19.6216 13.1009 18.583 13.1009 17.5C13.1009 16.417 13.5311 15.3784 14.2969 14.6127C15.0627 13.8469 16.1013 13.4167 17.1843 13.4167C18.2672 13.4167 19.3058 13.8469 20.0716 14.6127C20.8374 15.3784 21.2676 16.417 21.2676 17.5C21.2676 18.583 20.8374 19.6216 20.0716 20.3874C19.3058 21.1531 18.2672 21.5833 17.1843 21.5833ZM25.8526 18.6317C25.8993 18.2583 25.9343 17.885 25.9343 17.5C25.9343 17.115 25.8993 16.73 25.8526 16.3333L28.3143 14.4317C28.5359 14.2567 28.5943 13.9417 28.4543 13.685L26.1209 9.64834C25.9809 9.39168 25.6659 9.28668 25.4093 9.39168L22.5043 10.5583C21.8976 10.1033 21.2676 9.70668 20.5326 9.41501L20.1009 6.32334C20.0543 6.04334 19.8093 5.83334 19.5176 5.83334H14.8509C14.5593 5.83334 14.3143 6.04334 14.2676 6.32334L13.8359 9.41501C13.1009 9.70668 12.4709 10.1033 11.8643 10.5583L8.95926 9.39168C8.70259 9.28668 8.38759 9.39168 8.24759 9.64834L5.91426 13.685C5.76259 13.9417 5.83259 14.2567 6.05426 14.4317L8.51593 16.3333C8.46926 16.73 8.43426 17.115 8.43426 17.5C8.43426 17.885 8.46926 18.2583 8.51593 18.6317L6.05426 20.5683C5.83259 20.7433 5.76259 21.0583 5.91426 21.315L8.24759 25.3517C8.38759 25.6083 8.70259 25.7017 8.95926 25.6083L11.8643 24.43C12.4709 24.8967 13.1009 25.2933 13.8359 25.585L14.2676 28.6767C14.3143 28.9567 14.5593 29.1667 14.8509 29.1667H19.5176C19.8093 29.1667 20.0543 28.9567 20.1009 28.6767L20.5326 25.585C21.2676 25.2817 21.8976 24.8967 22.5043 24.43L25.4093 25.6083C25.6659 25.7017 25.9809 25.6083 26.1209 25.3517L28.4543 21.315C28.5943 21.0583 28.5359 20.7433 28.3143 20.5683L25.8526 18.6317Z" fill="#666666"/>
</g>
<defs>
<clipPath id="clip0_1749_6707">
<rect width="35" height="35" fill="white"/>
</clipPath>
</defs>
</svg>
