<svg width="208" height="22" viewBox="0 0 208 22" fill="none" xmlns="http://www.w3.org/2000/svg">
<path fill-rule="evenodd" clip-rule="evenodd" d="M9.46916 1.88494H1.94101V7.78349H8.99367V9.66843H1.94101V15.5666L9.67119 15.567V17.4519H0.970201C0.467863 17.4519 0.054693 17.0811 0.00500904 16.6058L0 16.5094V0.942472C0 0.454491 0.381774 0.0531299 0.871004 0.00486588L0.970201 0H9.46916V1.88494ZM14.3035 17.4225H12.4186V0.0809942H14.3035V17.4225ZM206.115 17.4223H208V0.942473H206.115V17.4223ZM62.4051 6.63561C61.7152 6.63561 61.1915 7.18943 61.1915 7.8786L61.1931 17.4223H59.1435V7.54315C59.1435 5.92154 60.4347 4.60465 62.0693 4.60465H64.2184V6.63561H62.4051ZM165.79 7.40609C165.149 7.40609 164.663 7.92035 164.663 8.56029L164.664 17.4223H162.761V8.2488C162.761 6.74302 163.96 5.5202 165.478 5.5202H167.473V7.40609H165.79ZM132.602 17.4223H134.486V5.5202H132.602V17.4223ZM179.338 11.0278C179.338 8.54694 177.147 6.52596 174.45 6.52596C171.755 6.52596 169.564 8.54694 169.564 11.0278C169.564 13.5095 171.755 15.5305 174.45 15.5305C177.147 15.5305 179.338 13.5095 179.338 11.0278ZM191.214 11.0278C191.214 8.54694 189.021 6.52596 186.324 6.52596C183.629 6.52596 181.435 8.54694 181.435 11.0278C181.435 13.5095 183.629 15.5305 186.324 15.5305C189.021 15.5305 191.214 13.5095 191.214 11.0278ZM203.086 11.0278C203.086 8.54694 200.894 6.52596 198.199 6.52596C195.501 6.52596 193.311 8.54694 193.311 11.0278C193.311 13.5095 195.501 15.5305 198.199 15.5305C200.894 15.5305 203.086 13.5095 203.086 11.0278ZM169.582 22H167.473V11.0278C167.473 7.48033 170.598 4.60465 174.45 4.60465C176.96 4.60465 179.16 5.82666 180.387 7.65771C181.615 5.82666 183.816 4.60465 186.324 4.60465C188.831 4.60465 191.036 5.82587 192.261 7.65771C193.489 5.82587 195.687 4.60465 198.199 4.60465C202.051 4.60465 205.173 7.48033 205.173 11.0278C205.173 14.5753 202.051 17.4502 198.199 17.4502C195.687 17.4502 193.489 16.2298 192.261 14.3995C191.036 16.2298 188.831 17.4502 186.324 17.4502C183.816 17.4502 181.615 16.2298 180.387 14.3995C179.16 16.2298 176.96 17.4502 174.45 17.4502C172.554 17.4502 170.838 16.7541 169.582 15.6255V22ZM154.752 6.406C156.908 6.406 158.865 7.64859 159.581 9.58845H149.915C150.63 7.64859 152.595 6.406 154.752 6.406ZM154.752 17.4223C158.037 17.4223 160.843 15.4159 161.616 12.5311H159.545C158.832 14.3799 156.914 15.6225 154.752 15.6225C152.124 15.6225 149.939 13.8275 149.682 11.3906H161.818V11.0131C161.818 7.47922 158.647 4.60465 154.752 4.60465C150.853 4.60465 147.681 7.47922 147.681 11.0131C147.681 14.5461 150.853 17.4223 154.752 17.4223ZM115.34 9.58845C114.624 7.64859 112.667 6.406 110.511 6.406C108.354 6.406 106.389 7.64859 105.674 9.58845H115.34ZM117.375 12.5311C116.602 15.4159 113.796 17.4223 110.511 17.4223C106.612 17.4223 103.44 14.5461 103.44 11.0131C103.44 7.47922 106.612 4.60465 110.511 4.60465C114.406 4.60465 117.577 7.47922 117.577 11.0131V11.3906H105.441C105.697 13.8275 107.882 15.6225 110.511 15.6225C112.673 15.6225 114.591 14.3799 115.304 12.5311H117.375ZM55.6507 9.53782H46.3368C47.0257 7.69947 48.9191 6.22032 50.9976 6.22032C53.0752 6.22032 54.961 7.69947 55.6507 9.53782ZM57.7791 12.6388H55.7328C55.028 14.4876 53.1327 15.7302 50.9959 15.7302C48.3984 15.7302 46.2392 13.9352 45.9855 11.4983H57.9792V11.1208C57.9792 7.58693 54.8451 4.71236 50.9959 4.71236C47.1432 4.71236 44.0083 7.58693 44.0083 11.1208C44.0083 14.6538 47.1432 17.53 50.9959 17.53C54.2421 17.53 57.0156 15.5236 57.7791 12.6388ZM148.624 5.5202L143.389 17.4223H140.662L135.429 5.5202H137.812L142.025 15.0995L146.238 5.5202H148.624ZM125.29 0.942473V14.3353C125.297 15.0014 125.71 15.5216 126.527 15.5216H131.659V17.4223L124.587 17.4215C123.694 17.4215 123.177 16.914 123.177 16.1797V0.942473H125.29ZM134.486 2.77356H132.602V0.942473H134.486V2.77356ZM82.8164 10.9327C82.8164 7.28909 79.7757 4.33537 76.0249 4.33537C72.2742 4.33537 69.2335 7.28909 69.2335 10.9327C69.2335 14.5763 72.2742 17.53 76.0249 17.53C79.7757 17.53 82.8164 14.5763 82.8164 10.9327ZM71.231 10.9327C71.231 8.36073 73.3773 6.27576 76.0249 6.27576C78.6726 6.27576 80.8189 8.36073 80.8189 10.9327C80.8189 13.5046 78.6726 15.5896 76.0249 15.5896C73.3773 15.5896 71.231 13.5046 71.231 10.9327ZM102.22 0.38945V11.1212C102.22 14.6607 99.2666 17.53 95.623 17.53C91.9794 17.53 89.0257 14.6607 89.0257 11.1212C89.0257 7.58169 91.9794 4.71236 95.623 4.71236C97.4407 4.71236 99.0867 5.42646 100.28 6.58163V0.38945H102.22ZM95.623 6.59731C98.195 6.59731 100.28 8.62271 100.28 11.1212C100.28 13.6196 98.195 15.645 95.623 15.645C93.051 15.645 90.966 13.6196 90.966 11.1212C90.966 8.62271 93.051 6.59731 95.623 6.59731ZM67.7661 17.5172L67.7658 17.53H69.3112L69.3111 15.6751L68.1305 15.675L67.9964 15.6731C66.9093 15.6386 66.4913 15.1682 66.4765 13.9804L66.4766 6.22032H69.3112V4.71236H66.4766L66.4766 0.188495H64.6542V13.9922L64.6594 14.178C64.7449 16.1358 65.7959 17.3156 67.6023 17.5035L67.7661 17.5172ZM33.6305 4.33537V12.3105C33.6305 14.6728 34.7048 15.698 37.1978 15.698C39.6252 15.698 40.7076 14.7261 40.7628 12.4943L40.7651 12.3105V4.33537H42.7055V12.3105C42.7055 15.7214 40.7548 17.5829 37.1978 17.5829C33.7134 17.5829 31.7704 15.7967 31.6926 12.5174L31.6901 12.3105V4.33537H33.6305ZM26.1818 0.17115L26.2735 0.175365C29.3502 0.458989 30.9666 2.4831 30.9666 5.89051C30.9666 9.23201 29.4074 11.2164 26.3855 11.494L26.1818 11.51L22.0639 11.5095L22.0638 17.53H20.1234V1.11362C20.1234 0.625641 20.5052 0.22428 20.9944 0.176016L21.0936 0.17115H26.1818ZM26.1256 2.05534H22.0639V9.62453L26.1161 9.62717C28.0554 9.4992 28.9731 8.43832 29.0239 6.10015L29.0262 5.89051C29.0262 3.46881 28.1517 2.3045 26.2598 2.07015L26.1256 2.05534Z" fill="white"/>
</svg>
