<svg width="35" height="35" viewBox="0 0 35 35" fill="none" xmlns="http://www.w3.org/2000/svg">
<g clip-path="url(#clip0_1749_2631)">
<rect width="35" height="35" rx="6" fill="#F5F5F5"/>
<path d="M27.2916 24.7222V25.8333H7.29163V24.7222L9.51385 22.5V15.8333C9.51385 12.3889 11.7694 9.35554 15.0694 8.37776C15.0694 8.26665 15.0694 8.16665 15.0694 8.05554C15.0694 7.46617 15.3035 6.90093 15.7203 6.48419C16.137 6.06744 16.7023 5.83331 17.2916 5.83331C17.881 5.83331 18.4462 6.06744 18.863 6.48419C19.2797 6.90093 19.5138 7.46617 19.5138 8.05554C19.5138 8.16665 19.5138 8.26665 19.5138 8.37776C22.8138 9.35554 25.0694 12.3889 25.0694 15.8333V22.5L27.2916 24.7222ZM19.5138 26.9444C19.5138 27.5338 19.2797 28.099 18.863 28.5158C18.4462 28.9325 17.881 29.1666 17.2916 29.1666C16.7023 29.1666 16.137 28.9325 15.7203 28.5158C15.3035 28.099 15.0694 27.5338 15.0694 26.9444" fill="#666666"/>
</g>
<defs>
<clipPath id="clip0_1749_2631">
<rect width="35" height="35" fill="white"/>
</clipPath>
</defs>
</svg>
